<?xml version="1.0" encoding="UTF-8"?>
<svg xmlns="http://www.w3.org/2000/svg" width="72" height="72" viewBox="0 0 72 72" fill="none">
  <g clip-path="url(#clip0_2010_31769)">
    <path d="M69.9278 1.09265H56.255C56.1308 1.09326 56.0118 1.14279 55.9239 1.23051C55.836 1.31823 55.7861 1.43708 55.7852 1.56129V7.92961H49.4192C49.2949 7.92992 49.1758 7.97935 49.0878 8.06714C48.9998 8.15492 48.95 8.27394 48.9494 8.39825V14.7654H42.5811C42.4568 14.766 42.3378 14.8158 42.25 14.9038C42.1622 14.9918 42.1128 15.1109 42.1125 15.2352V21.6024H29.3781V15.234C29.3775 15.1099 29.3279 14.9911 29.2402 14.9033C29.1524 14.8156 29.0336 14.766 28.9095 14.7654H22.5412V8.39709C22.5406 8.27288 22.491 8.15391 22.4033 8.06597C22.3156 7.97803 22.1967 7.92821 22.0725 7.92729H15.7054V1.56129C15.7048 1.43698 15.655 1.31796 15.567 1.23018C15.479 1.14239 15.3599 1.09296 15.2356 1.09265H1.56281C1.4386 1.09326 1.31964 1.14279 1.2317 1.23051C1.14376 1.31823 1.09393 1.43708 1.09302 1.56129V69.9309C1.09302 70.1896 1.3053 70.4018 1.56281 70.4018H15.2356C15.36 70.4012 15.4791 70.3515 15.5671 70.2636C15.6551 70.1756 15.7048 70.0564 15.7054 69.932V63.5637H22.0725C22.1968 63.5634 22.316 63.514 22.404 63.4262C22.492 63.3384 22.5417 63.2194 22.5423 63.0951V56.7279H28.9095C29.0335 56.727 29.1522 56.6773 29.2399 56.5897C29.3276 56.502 29.3772 56.3833 29.3781 56.2593V49.8898H42.1125V56.2581C42.1125 56.5156 42.3247 56.7268 42.5823 56.7268H48.9494V63.0951C48.9494 63.3514 49.1605 63.5637 49.4192 63.5637H55.7852V69.9309C55.7852 70.1884 55.9975 70.4007 56.255 70.4007H69.9278C70.0522 70.4001 70.1713 70.3504 70.2593 70.2624C70.3473 70.1744 70.397 70.0553 70.3976 69.9309V1.56245C70.3973 1.43794 70.3477 1.31863 70.2596 1.23059C70.1716 1.14255 70.0523 1.09296 69.9278 1.09265ZM29.3781 42.1156V29.3824H42.1125V42.1156H29.3781ZM28.9095 28.4428C28.785 28.4431 28.6657 28.4927 28.5776 28.5807C28.4896 28.6688 28.44 28.7881 28.4397 28.9126V42.5854C28.4397 42.844 28.6508 43.0552 28.9095 43.0552H35.2755V48.9525H22.5423V22.5454H35.2755V28.4428H28.9095ZM14.7658 69.4669H2.03261V2.03688H14.7658V7.93309H8.39977C8.27536 7.9337 8.15622 7.98339 8.06825 8.07136C7.98028 8.15934 7.93059 8.27848 7.92998 8.40289V63.0997C7.92998 63.3572 8.1411 63.5695 8.39977 63.5695H14.7658V69.4669ZM21.6027 62.6299H8.86841V8.87268H21.6027V14.7701H15.2356C15.1112 14.7707 14.992 14.8204 14.9041 14.9083C14.8161 14.9963 14.7664 15.1154 14.7658 15.2398V56.2581C14.7658 56.5168 14.9781 56.7279 15.2356 56.7279H21.6039V62.6299H21.6027ZM28.4397 55.7941H15.7054V15.7131H28.4397V21.6105H22.0725C21.9481 21.6111 21.829 21.6608 21.741 21.7488C21.653 21.8367 21.6033 21.9559 21.6027 22.0803V49.427C21.6027 49.6845 21.815 49.8968 22.0725 49.8968H28.4397V55.7941ZM36.2151 43.0598H42.5823C42.7067 43.0592 42.8258 43.0095 42.9138 42.9215C43.0017 42.8335 43.0514 42.7144 43.052 42.59V28.9172C43.0517 28.7927 43.0021 28.6734 42.9141 28.5854C42.8261 28.4973 42.7068 28.4478 42.5823 28.4475H36.2151V22.5501H48.9494V48.9572H36.2151V43.0598ZM43.052 49.8968H49.4192C49.5435 49.8961 49.6625 49.8464 49.7503 49.7584C49.8381 49.6704 49.8875 49.5513 49.8878 49.427V22.0803C49.8872 21.9561 49.8377 21.8371 49.75 21.7492C49.6623 21.6612 49.5434 21.6114 49.4192 21.6105H43.0509V15.7131H55.7852V55.7941H43.052V49.8968ZM49.8878 56.7326H56.2562C56.3804 56.7316 56.4992 56.6818 56.5869 56.5939C56.6747 56.5059 56.7242 56.387 56.7248 56.2628V15.2445C56.7242 15.1201 56.6745 15.0009 56.5865 14.913C56.4986 14.825 56.3794 14.7753 56.255 14.7747H49.8878V8.87732H62.6222V62.6346H49.8878V56.7326ZM69.4603 69.4669H56.7237V63.5695H63.0908C63.2152 63.5689 63.3344 63.5192 63.4223 63.4312C63.5103 63.3433 63.56 63.2241 63.5606 63.0997V8.40289C63.56 8.27848 63.5103 8.15934 63.4223 8.07136C63.3344 7.98339 63.2152 7.9337 63.0908 7.93309H56.7237V2.03572H69.458V69.4657L69.4603 69.4669Z" fill="white"></path>
  </g>
  <defs>
    <clipPath id="clip0_2010_31769">
      <rect width="70.7592" height="70.7592" fill="white" transform="translate(0.475342 0.474976)"></rect>
    </clipPath>
  </defs>
</svg>
