<?xml version="1.0" encoding="UTF-8"?>
<svg xmlns="http://www.w3.org/2000/svg" width="71" height="72" viewBox="0 0 71 72" fill="none">
  <g clip-path="url(#clip0_2010_31788)">
    <path d="M69.2246 50.0862C62.0879 50.7371 56.4983 56.7323 56.4983 64.0389V70.185" stroke="white" stroke-width="0.707539" stroke-miterlimit="10"></path>
    <path d="M69.0805 48.7459C69.4388 48.7282 69.7895 48.8533 70.0556 49.0939C70.3218 49.3344 70.4817 49.6707 70.5002 50.0289C70.518 50.3872 70.3928 50.7379 70.1523 51.0041C69.9118 51.2703 69.5755 51.4302 69.2172 51.4487C68.8589 51.4664 68.5082 51.3413 68.2421 51.1008C67.9759 50.8603 67.816 50.524 67.7974 50.1657C67.7797 49.8074 67.9049 49.4567 68.1454 49.1905C68.3859 48.9244 68.7222 48.7645 69.0805 48.7459ZM55.1372 70.1183C55.1372 70.2961 55.1722 70.4721 55.2403 70.6364C55.3083 70.8006 55.408 70.9499 55.5337 71.0756C55.6594 71.2013 55.8087 71.301 55.9729 71.369C56.1371 71.4371 56.3132 71.4721 56.491 71.4721C57.2362 71.4721 57.8447 70.8636 57.8447 70.1183C57.8447 69.373 57.2362 68.7646 56.491 68.7646C55.7457 68.7646 55.1372 69.373 55.1372 70.1183Z" fill="white"></path>
    <path d="M69.2233 43.0624C58.214 43.7275 49.4971 52.8642 49.4971 64.0386V70.1847" stroke="white" stroke-width="0.707539" stroke-miterlimit="10"></path>
    <path d="M69.0841 41.7424C69.4424 41.7247 69.7931 41.8498 70.0593 42.0903C70.3255 42.3308 70.4854 42.6671 70.5039 43.0254C70.5216 43.3837 70.3965 43.7344 70.156 44.0006C69.9154 44.2667 69.5792 44.4266 69.2209 44.4452C68.8626 44.4629 68.5119 44.3378 68.2457 44.0972C67.9796 43.8567 67.8197 43.5204 67.8011 43.1622C67.7834 42.8039 67.9085 42.4532 68.149 42.187C68.3896 41.9208 68.7258 41.7609 69.0841 41.7424ZM48.1362 70.1194C48.1362 70.4785 48.2789 70.8228 48.5327 71.0767C48.7866 71.3306 49.1309 71.4732 49.49 71.4732C50.2353 71.4732 50.8437 70.8647 50.8437 70.1194C50.8437 69.3741 50.2353 68.7657 49.49 68.7657C48.7447 68.7657 48.1362 69.3741 48.1362 70.1194Z" fill="white"></path>
    <path d="M69.2221 36.0486C54.3449 36.7231 42.4866 48.9966 42.4866 64.0388V70.185" stroke="white" stroke-width="0.707539" stroke-miterlimit="10"></path>
    <path d="M69.1103 34.6997C69.8603 34.6808 70.4782 35.2704 70.4971 36.0204C70.5159 36.7704 69.9263 37.3883 69.1763 37.4072C68.4263 37.426 67.8084 36.8364 67.7895 36.0864C67.7848 35.9086 67.8153 35.7315 67.8792 35.5655C67.9431 35.3994 68.0392 35.2476 68.1619 35.1187C68.2846 34.9899 68.4315 34.8865 68.5943 34.8146C68.7571 34.7427 68.9324 34.7036 69.1103 34.6997ZM41.1248 70.1191C41.1248 70.4781 41.2674 70.8225 41.5213 71.0763C41.7751 71.3302 42.1195 71.4728 42.4785 71.4728C43.2238 71.4728 43.8323 70.8644 43.8323 70.1191C43.8323 69.3738 43.2238 68.7653 42.4785 68.7653C41.7332 68.7653 41.1248 69.3738 41.1248 70.1191Z" fill="white"></path>
    <path d="M69.2158 29.0388C50.466 29.718 35.4756 45.1278 35.4756 64.0374V70.1834" stroke="white" stroke-width="0.707539" stroke-miterlimit="10"></path>
    <path d="M69.1137 27.6948C69.8637 27.6759 70.4816 28.2655 70.5005 29.0155C70.5194 29.7654 69.9297 30.3833 69.1798 30.4022C68.4298 30.4211 67.8118 29.8315 67.793 29.0815C67.7883 28.9036 67.8187 28.7266 67.8826 28.5605C67.9465 28.3945 68.0426 28.2427 68.1653 28.1138C68.288 27.985 68.435 27.8816 68.5977 27.8097C68.7605 27.7378 68.9358 27.6988 69.1137 27.6948ZM34.1235 70.1176C34.1235 70.4766 34.2662 70.8209 34.52 71.0748C34.7739 71.3287 35.1183 71.4713 35.4773 71.4713C36.2226 71.4713 36.8311 70.8628 36.8311 70.1176C36.8311 69.3723 36.2226 68.7639 35.4773 68.7639C34.732 68.7639 34.1235 69.3723 34.1235 70.1176Z" fill="white"></path>
    <path d="M69.219 22.0304C46.6013 22.7096 28.4741 41.2607 28.4741 64.0381V70.1841" stroke="white" stroke-width="0.707539" stroke-miterlimit="10"></path>
    <path d="M69.1079 20.6916C69.8578 20.6727 70.4758 21.2623 70.4946 22.0123C70.5135 22.7623 69.9239 23.3802 69.1739 23.399C68.4239 23.4179 67.806 22.8283 67.7871 22.0783C67.7824 21.9005 67.8129 21.7234 67.8768 21.5574C67.9407 21.3913 68.0367 21.2395 68.1594 21.1107C68.2822 20.9818 68.4291 20.8785 68.5919 20.8066C68.7546 20.7346 68.93 20.6956 69.1079 20.6916ZM27.113 70.1188C27.113 70.4779 27.2557 70.8222 27.5095 71.0761C27.7634 71.3299 28.1078 71.4726 28.4668 71.4726C29.2121 71.4726 29.8206 70.8641 29.8206 70.1188C29.8206 69.3736 29.2121 68.7651 28.4668 68.7651C27.7215 68.7651 27.113 69.3736 27.113 70.1188Z" fill="white"></path>
    <path d="M69.2198 21.8101C62.0831 21.1592 56.4983 15.164 56.4983 7.85747V2.2113" stroke="white" stroke-width="0.707539" stroke-miterlimit="10"></path>
    <path d="M69.2172 20.4507C69.9625 20.4885 70.538 21.1253 70.5002 21.8705C70.4817 22.2288 70.3218 22.5651 70.0556 22.8056C69.7895 23.0461 69.4388 23.1713 69.0805 23.1535C68.7222 23.135 68.3859 22.9751 68.1454 22.7089C67.9049 22.4428 67.7797 22.0921 67.7974 21.7337C67.8352 20.9885 68.472 20.413 69.2172 20.4507ZM57.8447 2.28113C57.8447 1.92209 57.7021 1.57775 57.4482 1.32387C57.1943 1.07 56.85 0.927368 56.491 0.927368C55.7457 0.927368 55.1372 1.53585 55.1372 2.28113C55.1372 3.0264 55.7457 3.63489 56.491 3.63489C57.2362 3.63489 57.8447 3.0264 57.8447 2.28113Z" fill="white"></path>
    <path d="M69.2233 28.8384C58.214 28.1733 49.4971 19.0366 49.4971 7.86218V2.2113" stroke="white" stroke-width="0.707539" stroke-miterlimit="10"></path>
    <path d="M69.2209 27.4554C69.9662 27.4931 70.5416 28.1299 70.5039 28.8752C70.4854 29.2334 70.3255 29.5697 70.0593 29.8102C69.7931 30.0508 69.4424 30.1759 69.0841 30.1582C68.7258 30.1396 68.3896 29.9797 68.149 29.7136C67.9085 29.4474 67.7834 29.0967 67.8011 28.7384C67.8388 27.9931 68.4756 27.4176 69.2209 27.4554ZM50.8437 2.28113C50.8437 1.92209 50.7011 1.57775 50.4472 1.32387C50.1934 1.07 49.849 0.927368 49.49 0.927368C48.7447 0.927368 48.1362 1.53585 48.1362 2.28113C48.1362 3.0264 48.7447 3.63489 49.49 3.63489C50.2353 3.63489 50.8437 3.0264 50.8437 2.28113Z" fill="white"></path>
    <path d="M69.2221 35.8524C54.3449 35.1779 42.4866 22.9045 42.4866 7.86218V2.2113" stroke="white" stroke-width="0.707539" stroke-miterlimit="10"></path>
    <path d="M69.1811 34.493C69.3588 34.4974 69.534 34.5367 69.6966 34.6087C69.8592 34.6808 70.006 34.7841 70.1286 34.9129C70.2513 35.0417 70.3474 35.1933 70.4114 35.3592C70.4754 35.5251 70.5061 35.702 70.5018 35.8798C70.4974 36.0576 70.4581 36.2328 70.3861 36.3954C70.3141 36.5579 70.2107 36.7048 70.0819 36.8274C69.9532 36.95 69.8015 37.0461 69.6356 37.1101C69.4697 37.1742 69.2928 37.2049 69.115 37.2006C68.756 37.1918 68.4151 37.0408 68.1674 36.7807C67.9197 36.5206 67.7855 36.1728 67.7943 35.8138C67.803 35.4547 67.9541 35.1139 68.2141 34.8662C68.4742 34.6185 68.822 34.4843 69.1811 34.493ZM43.8323 2.28113C43.8323 1.92209 43.6896 1.57775 43.4358 1.32387C43.1819 1.07 42.8376 0.927368 42.4785 0.927368C41.7332 0.927368 41.1248 1.53585 41.1248 2.28113C41.1248 3.0264 41.7332 3.63489 42.4785 3.63489C43.2238 3.63489 43.8323 3.0264 43.8323 2.28113Z" fill="white"></path>
    <path d="M1.74121 35.9491H38.9814" stroke="white" stroke-width="0.707539" stroke-miterlimit="10"></path>
    <path d="M1.8042 37.3033C1.44516 37.3033 1.10083 37.1607 0.846946 36.9068C0.593067 36.653 0.450439 36.3086 0.450439 35.9496C0.450439 35.2043 1.05892 34.5958 1.8042 34.5958C2.54947 34.5958 3.15796 35.2043 3.15796 35.9496C3.15796 36.6949 2.54947 37.3033 1.8042 37.3033Z" fill="white"></path>
    <path d="M1.74121 43.0255H34.0993" stroke="white" stroke-width="0.707539" stroke-miterlimit="10"></path>
    <path d="M1.8042 44.3789C1.44516 44.3789 1.10083 44.2363 0.846946 43.9824C0.593067 43.7285 0.450439 43.3842 0.450439 43.0251C0.450439 42.2799 1.05892 41.6714 1.8042 41.6714C2.54947 41.6714 3.15796 42.2799 3.15796 43.0251C3.15796 43.7704 2.54947 44.3789 1.8042 44.3789Z" fill="white"></path>
    <path d="M1.74121 29.0161H34.0993" stroke="white" stroke-width="0.707539" stroke-miterlimit="10"></path>
    <path d="M1.8042 30.3702C1.44516 30.3702 1.10083 30.2276 0.846946 29.9737C0.593067 29.7199 0.450439 29.3755 0.450439 29.0165C0.450439 28.2712 1.05892 27.6627 1.8042 27.6627C2.54947 27.6627 3.15796 28.2712 3.15796 29.0165C3.15796 29.7618 2.54947 30.3702 1.8042 30.3702Z" fill="white"></path>
    <path d="M1.74121 49.8879H30.9201" stroke="white" stroke-width="0.707539" stroke-miterlimit="10"></path>
    <path d="M1.8042 51.2412C1.44516 51.2412 1.10083 51.0986 0.846946 50.8447C0.593067 50.5908 0.450439 50.2465 0.450439 49.8875C0.450439 49.1422 1.05892 48.5337 1.8042 48.5337C2.54947 48.5337 3.15796 49.1422 3.15796 49.8875C3.15796 50.6327 2.54947 51.2412 1.8042 51.2412Z" fill="white"></path>
    <path d="M1.74121 22.0112H30.9201" stroke="white" stroke-width="0.707539" stroke-miterlimit="10"></path>
    <path d="M1.8042 23.3655C1.44516 23.3655 1.10083 23.2228 0.846946 22.969C0.593067 22.7151 0.450439 22.3708 0.450439 22.0117C0.450439 21.2664 1.05892 20.658 1.8042 20.658C2.54947 20.658 3.15796 21.2664 3.15796 22.0117C3.15796 22.757 2.54947 23.3655 1.8042 23.3655Z" fill="white"></path>
    <path d="M35.4756 2.2113V7.86202C35.4756 27.2056 51.1547 42.8842 70.4988 42.8842" stroke="white" stroke-width="0.707539" stroke-miterlimit="10"></path>
    <path d="M34.1235 2.28223C34.1235 1.92319 34.2662 1.57885 34.52 1.32497C34.7739 1.07109 35.1183 0.928467 35.4773 0.928467C36.2226 0.928467 36.8311 1.53695 36.8311 2.28223C36.8311 3.0275 36.2226 3.63598 35.4773 3.63598C34.732 3.63598 34.1235 3.0275 34.1235 2.28223Z" fill="white"></path>
    <path d="M28.4741 2.2113V7.86202C28.4741 31.0733 47.29 49.8886 70.502 49.8886" stroke="white" stroke-width="0.707539" stroke-miterlimit="10"></path>
    <path d="M27.113 2.28113C27.113 1.92209 27.2557 1.57775 27.5095 1.32387C27.7634 1.07 28.1078 0.927368 28.4668 0.927368C29.2121 0.927368 29.8206 1.53585 29.8206 2.28113C29.8206 3.0264 29.2121 3.63489 28.4668 3.63489C27.7215 3.63489 27.113 3.0264 27.113 2.28113Z" fill="white"></path>
  </g>
  <defs>
    <clipPath id="clip0_2010_31788">
      <rect width="70.7592" height="71.2235" fill="white" transform="translate(-0.00366211 0.475098)"></rect>
    </clipPath>
  </defs>
</svg>
