<?xml version="1.0" encoding="UTF-8"?>
<svg xmlns="http://www.w3.org/2000/svg" width="72" height="72" viewBox="0 0 72 72" fill="none">
  <g clip-path="url(#clip0_2010_31825)">
    <path d="M42.846 56.8666H28.9285M42.846 56.8666V70.7841H28.9285V56.8666M42.846 56.8666V42.9491M42.846 56.8666H56.7635V42.9491M28.9285 56.8666V42.9491M42.846 42.9491H28.9285M42.846 42.9491H56.7635M42.846 42.9491V29.0315M28.9285 42.9491V29.0315M56.7635 42.9491V29.0315M56.7635 42.9491H70.6811V29.0315H56.7635M42.846 29.0315H28.9285M42.846 29.0315H56.7635M42.846 29.0315V15.114M28.9285 29.0315V15.114H42.846M56.7635 29.0315V15.114H42.846M42.846 1.19177H28.9285V15.1093H42.846V1.19177Z" stroke="white" stroke-width="0.702906" stroke-miterlimit="10"></path>
    <path d="M28.9195 15.1152H42.8371V1.19763H28.9195V15.1152ZM14.9973 29.028H28.9148V15.1105H14.9973V29.028ZM14.9973 42.9502H28.9148V29.0327H14.9973V42.9502Z" stroke="white" stroke-width="0.702906" stroke-miterlimit="10"></path>
    <path d="M1.09741 42.9491H15.0149V29.0316H1.09741V42.9491ZM15.0103 56.8667H28.9278V42.9491H15.0103V56.8667Z" stroke="white" stroke-width="0.702906" stroke-miterlimit="10"></path>
  </g>
  <defs>
    <clipPath id="clip0_2010_31825">
      <rect width="70.7592" height="70.7592" fill="white" transform="translate(0.484619 0.748047)"></rect>
    </clipPath>
  </defs>
</svg>
