<?xml version="1.0" encoding="UTF-8"?>
<svg xmlns="http://www.w3.org/2000/svg" width="71" height="71" viewBox="0 0 71 71" fill="none">
  <g clip-path="url(#clip0_2010_31834)">
    <path d="M28.9894 69.7365H1.70071C1.58383 69.7365 1.47174 69.6901 1.38909 69.6074C1.30644 69.5248 1.26001 69.4127 1.26001 69.2958V42.006C1.26001 41.7625 1.45717 41.5653 1.70071 41.5653H28.9894C29.233 41.5653 29.4301 41.7625 29.4301 42.006V69.2958C29.4301 69.5394 29.233 69.7365 28.9894 69.7365ZM2.13793 68.8574H28.5487V42.4467H2.13677V68.8586L2.13793 68.8574ZM69.926 28.7984H42.6372C42.5204 28.7984 42.4083 28.7519 42.3256 28.6693C42.243 28.5866 42.1965 28.4745 42.1965 28.3576V1.07133C42.1965 0.827779 42.3937 0.630615 42.6372 0.630615H69.926C70.1695 0.630615 70.3667 0.827779 70.3667 1.07133V28.3611C70.3667 28.6047 70.1695 28.8018 69.926 28.8018V28.7984ZM43.0745 27.9204H69.4853V1.50857H43.0745V27.9204Z" fill="white"></path>
    <path d="M63.0998 35.6203H35.8111C35.6942 35.6203 35.5821 35.5739 35.4994 35.4912C35.4168 35.4086 35.3704 35.2965 35.3704 35.1796V7.89445C35.3704 7.6509 35.5675 7.45374 35.8111 7.45374H63.0998C63.3433 7.45374 63.5405 7.6509 63.5405 7.89445V35.1842C63.5405 35.4278 63.3433 35.625 63.0998 35.625V35.6203ZM36.2483 34.7435H62.6591V8.33053H36.2483V34.7424V34.7435Z" fill="white"></path>
    <path d="M56.2815 42.4417H28.9939C28.877 42.4417 28.7649 42.3953 28.6823 42.3127C28.5997 42.23 28.5532 42.1179 28.5532 42.001V14.7182C28.5532 14.4746 28.7504 14.2775 28.9939 14.2775H56.2826C56.5262 14.2775 56.7233 14.4746 56.7233 14.7182V42.008C56.7233 42.2504 56.5262 42.4487 56.2826 42.4487V42.4429L56.2815 42.4417ZM29.43 41.5649H55.8408V15.1531H29.43V41.5649Z" fill="white"></path>
    <path d="M49.4615 49.2682H22.1751C22.0582 49.2682 21.9461 49.2218 21.8635 49.1391C21.7808 49.0565 21.7344 48.9444 21.7344 48.8275V21.5389C21.7344 21.2953 21.9315 21.0981 22.1751 21.0981H49.4638C49.7073 21.0981 49.9045 21.2953 49.9045 21.5389V48.8286C49.9045 49.0722 49.7073 49.2694 49.4638 49.2694L49.4615 49.2682ZM22.6111 48.3914H49.0208V21.9749H22.6111V48.3914Z" fill="white"></path>
    <path d="M42.6361 56.0911H15.3474C15.2306 56.0911 15.1185 56.0447 15.0358 55.9621C14.9532 55.8794 14.9067 55.7673 14.9067 55.6504V28.3606C14.9067 28.1171 15.1039 27.9199 15.3474 27.9199H42.6361C42.8797 27.9199 43.0768 28.1171 43.0768 28.3606V55.6504C43.0768 55.894 42.8797 56.0911 42.6361 56.0911ZM15.7835 55.2132H42.1943V28.7979H15.7835V55.2132Z" fill="white"></path>
    <path d="M35.8173 62.9143H8.52859C8.41171 62.9143 8.29962 62.8678 8.21697 62.7852C8.13432 62.7025 8.08789 62.5904 8.08789 62.4735V35.1838C8.08789 34.9402 8.28505 34.743 8.52859 34.743H35.8173C36.0608 34.743 36.258 34.9402 36.258 35.1838V62.4735C36.258 62.7171 36.0608 62.9143 35.8173 62.9143ZM8.96581 62.0363H35.3766V35.6245H8.96581V62.0363Z" fill="white"></path>
  </g>
  <defs>
    <clipPath id="clip0_2010_31834">
      <rect width="70.7592" height="69.5872" fill="white" transform="translate(0.249756 0.511841)"></rect>
    </clipPath>
  </defs>
</svg>
