<?xml version="1.0" encoding="UTF-8"?>
<svg xmlns="http://www.w3.org/2000/svg" width="71" height="71" viewBox="0 0 71 71" fill="none">
  <g clip-path="url(#clip0_2010_31846)">
    <path d="M63.332 44.3865C64.2072 41.5597 64.6517 38.6172 64.6506 35.658C64.6506 32.6205 64.1867 29.6897 63.332 26.9294C67.1313 24.4011 69.6445 20.0832 69.6445 15.1912C69.6445 7.42643 63.3274 1.10559 55.5594 1.10559C50.6665 1.10559 46.3488 3.61885 43.8228 7.41715C40.9957 6.54225 38.0529 6.0981 35.0935 6.09963C32.0573 6.09963 29.1255 6.56355 26.3653 7.41715C23.8382 3.61885 19.524 1.10559 14.6275 1.10559C6.86307 1.10559 0.54248 7.42179 0.54248 15.1912C0.54248 20.0832 3.05564 24.4022 6.85495 26.9282C5.97967 29.7555 5.53515 32.6984 5.53632 35.658C5.53632 38.6943 6.00022 41.6251 6.85495 44.3865C3.05564 46.9137 0.54248 51.2316 0.54248 56.1236C0.54248 63.8883 6.85959 70.2103 14.6275 70.2103C19.5205 70.2103 23.8382 67.6971 26.3641 63.8976C29.1912 64.7729 32.134 65.2175 35.0935 65.2163C38.1297 65.2163 41.0615 64.7524 43.8217 63.8976C46.3488 67.6971 50.6665 70.2103 55.5594 70.2103C63.3227 70.2103 69.6445 63.893 69.6445 56.1247C69.6445 51.2269 67.1313 46.9091 63.332 44.3865ZM63.7727 35.658C63.7727 38.525 63.3459 41.2945 62.555 43.9087C59.9404 42.4033 56.9103 41.7807 53.914 42.1331C50.9177 42.4855 48.1148 43.7943 45.9208 45.8652L35.7093 35.6533L45.9208 25.4402C48.5271 27.9 51.9757 29.2694 55.5594 29.2675C58.1039 29.2675 60.493 28.5867 62.5561 27.398C63.3625 30.074 63.7728 32.8538 63.7739 35.6487L63.7727 35.658ZM54.3788 55.5599C54.1909 55.9589 54.2083 56.4274 54.4426 56.809C51.4878 59.5133 48 61.5695 44.2032 62.8457C42.747 60.3892 42.1281 57.5261 42.4397 54.6875C42.7514 51.8488 43.9767 49.1882 45.9313 47.1062L54.3788 55.5553V55.5599ZM56.2483 54.9986C56.0619 54.8844 55.8497 54.8191 55.6314 54.8088C55.413 54.7985 55.1956 54.8434 54.9993 54.9394L46.5506 46.4904C48.9925 44.1956 52.2178 42.9189 55.5687 42.9206C58.0216 42.9206 60.319 43.5967 62.2894 44.7635C61.0131 48.5606 58.9569 52.0488 56.253 55.0044L56.2483 54.9986ZM54.9993 16.3719C55.3982 16.5598 55.8668 16.5412 56.2483 16.3069C58.9516 19.2629 61.0077 22.7511 62.2848 26.5478C59.8284 28.0042 56.9654 28.6231 54.1269 28.3114C51.2883 27.9997 48.6278 26.7744 46.5459 24.8198L54.9946 16.3719H54.9993ZM54.3788 15.7514L45.9301 24.2004C43.6354 21.7584 42.3587 18.533 42.3604 15.1819C42.3604 12.729 43.0365 10.4314 44.2032 8.46096C48.0002 9.73729 51.4884 11.7935 54.4438 14.4977C54.3299 14.684 54.2643 14.8959 54.253 15.114C54.2416 15.3321 54.2849 15.5496 54.3788 15.7467V15.7514ZM55.5641 1.97775C62.8449 1.97775 68.7712 7.90426 68.7712 15.1866C68.7712 19.6935 66.5027 23.6762 63.0479 26.0607C61.7131 22.1869 59.5884 18.6325 56.8085 15.6226C56.9708 15.1587 56.8734 14.6252 56.5011 14.2541C56.13 13.8818 55.5965 13.7855 55.1326 13.9456C52.123 11.1645 48.5688 9.03859 44.695 7.70246C47.0794 4.24745 51.062 1.97775 55.5687 1.97775H55.5641ZM35.0981 6.97179C37.965 6.97179 40.7345 7.39976 43.3485 8.18957C41.8432 10.8043 41.2206 13.8345 41.573 16.8309C41.9254 19.8273 43.2341 22.6304 45.305 24.8244L35.0935 35.0375L24.8808 24.8244C26.9519 22.6305 28.2608 19.8275 28.6134 16.8311C28.966 13.8347 28.3436 10.8044 26.8384 8.18957C29.5144 7.38311 32.294 6.97284 35.0888 6.97179H35.0981ZM13.9479 16.3081C14.3283 16.5412 14.7969 16.5598 15.197 16.3719L23.6457 24.8198C21.2038 27.1145 17.9784 28.3913 14.6275 28.3896C12.1747 28.3896 9.87724 27.7146 7.90684 26.5478C9.18315 22.7507 11.2393 19.2624 13.9433 16.3069L13.9479 16.3081ZM15.8174 15.7514C15.9113 15.5542 15.9546 15.3367 15.9433 15.1186C15.9319 14.9005 15.8663 14.6887 15.7525 14.5023C18.7076 11.7979 22.1959 9.74159 25.993 8.4656C27.4509 10.9211 28.0711 13.7841 27.76 16.6229C27.449 19.4617 26.2235 22.1224 24.2685 24.2039L15.8209 15.7549L15.8163 15.7502L15.8174 15.7514ZM1.42504 15.1866C1.42388 7.90426 7.35016 1.97775 14.631 1.97775C19.1378 1.97775 23.1203 4.24745 25.5047 7.70246C21.6301 9.0368 18.0755 11.1629 15.0671 13.9456C14.6032 13.7855 14.0697 13.8818 13.6986 14.2541C13.3263 14.6252 13.23 15.1587 13.3901 15.6226C10.6101 18.6331 8.48439 22.1873 7.14721 26.0607C3.69234 23.6762 1.42272 19.6935 1.42272 15.1866H1.42504ZM6.41773 35.6533C6.41773 32.7863 6.84567 30.0168 7.63546 27.4026C10.2502 28.9078 13.2803 29.5303 16.2766 29.1776C19.2729 28.825 22.0758 27.516 24.2696 25.4449L34.4823 35.658L24.2696 45.8711C21.6636 43.4116 18.2155 42.0422 14.6322 42.0438C12.0865 42.0438 9.69864 42.7234 7.63546 43.9133C6.82903 41.2373 6.41877 38.4575 6.41773 35.6626V35.6533ZM15.197 54.9348C14.9999 54.8407 14.7825 54.7972 14.5644 54.8084C14.3463 54.8195 14.1344 54.8849 13.9479 54.9986C11.2421 52.0445 9.18566 48.5558 7.91147 44.7577C9.88187 43.5863 12.1793 42.9171 14.6322 42.9171C18.1137 42.9171 21.2844 44.2763 23.6503 46.4857L15.2016 54.9348H15.197ZM15.8174 55.5553L24.2661 47.1062C26.5604 49.5484 27.8367 52.7739 27.8347 56.1247C27.8347 58.5777 27.1597 60.8752 25.993 62.8457C22.196 61.5693 18.7079 59.5131 15.7525 56.809C15.9867 56.4274 16.0053 55.9589 15.8174 55.5599V55.5553ZM14.631 69.3277C7.349 69.3277 1.42272 63.4012 1.42272 56.1201C1.42272 51.6132 3.69234 47.6304 7.14721 45.2459C8.48153 49.1207 10.6076 52.6754 13.3901 55.684C13.23 56.1479 13.3263 56.6814 13.6986 57.0526C14.0697 57.4237 14.6032 57.5211 15.0671 57.3599C18.0766 60.1414 21.6308 62.2677 25.5047 63.6042C23.1203 67.0592 19.1378 69.3277 14.631 69.3277ZM35.097 64.3337C32.2301 64.3337 29.4606 63.9069 26.8466 63.1159C28.3522 60.5011 28.9749 57.4707 28.6225 54.474C28.2701 51.4773 26.9612 48.6741 24.8901 46.4799L35.1016 36.2692L45.3143 46.4811C42.8549 49.0872 41.4856 52.5355 41.4871 56.1189C41.4871 58.6647 42.1667 61.0538 43.3566 63.1171C40.6807 63.9235 37.9011 64.3338 35.1062 64.3349H35.097V64.3337ZM55.5629 69.3277C51.0562 69.3277 47.0736 67.0592 44.6892 63.6042C48.5628 62.2694 52.1171 60.1446 55.1268 57.3645C55.5907 57.5258 56.1277 57.4295 56.4953 57.0572C56.863 56.6861 56.9639 56.1526 56.8027 55.6886C59.5843 52.68 61.7091 49.1252 63.0421 45.2506C66.4969 47.6351 68.7654 51.6178 68.7654 56.1247C68.7654 63.4059 62.8391 69.3324 55.5583 69.3324L55.5629 69.3277Z" fill="white"></path>
  </g>
  <defs>
    <clipPath id="clip0_2010_31846">
      <rect width="70.7592" height="69.5872" fill="white" transform="translate(0.0102539 0.984863)"></rect>
    </clipPath>
  </defs>
</svg>
