<svg width="2518" height="1185" viewBox="0 0 2518 1185" fill="none" xmlns="http://www.w3.org/2000/svg">
<g clip-path="url(#clip0_2800_382)">
<path d="M2563.35 -21.3125H-45.3518V1206.31H2563.35V-21.3125Z" fill="url(#paint0_linear_2800_382)"/>
<path d="M587.361 378.847H485.693V424.786H587.361V378.847Z" fill="#F0F1FB"/>
<path d="M464.607 378.847H362.939V424.786H464.607V378.847Z" fill="#F0F1FB"/>
<path d="M525.984 445.873H424.316V491.811H525.984V445.873Z" fill="#F0F1FB"/>
<path d="M2216.23 547.502H2114.56V593.441H2216.23V547.502Z" fill="#F0F1FB"/>
<path d="M2154.85 614.528H2053.19V660.467H2154.85V614.528Z" fill="#F0F1FB"/>
<path d="M1990.87 711.968H1190.66C1173.7 711.968 1159.95 698.219 1159.95 681.259V149.448C1159.95 132.488 1173.7 118.739 1190.66 118.739H1990.87C2007.83 118.739 2021.57 132.488 2021.57 149.448V681.259C2021.57 698.219 2007.83 711.968 1990.87 711.968Z" fill="white"/>
<path d="M1377.46 519.114H1296.59V631.445H1377.46V519.114Z" fill="#03C7B6"/>
<path d="M1539.76 412.199H1458.89V631.445H1539.76V412.199Z" fill="#03C7B6"/>
<path d="M1702.06 439.405H1621.19V631.446H1702.06V439.405Z" fill="#03C7B6"/>
<path d="M1864.35 330.658H1783.49V631.446H1864.35V330.658Z" fill="#03C7B6"/>
<path d="M1941.05 631.445H1240.47V199.26" stroke="#6475B7" stroke-width="2.98228" stroke-miterlimit="10" stroke-linecap="round" stroke-linejoin="round"/>
<path d="M1337.03 470.662L1499.33 342.261L1661.62 387.979L1823.92 259.132" stroke="#6475B7" stroke-width="20.8759" stroke-miterlimit="10" stroke-linecap="round" stroke-linejoin="round"/>
<path d="M1767.86 259.132H1823.92" stroke="#6475B7" stroke-width="20.8759" stroke-miterlimit="10" stroke-linecap="round" stroke-linejoin="round"/>
<path d="M1809.56 313.322L1823.92 259.132" stroke="#6475B7" stroke-width="20.8759" stroke-miterlimit="10" stroke-linecap="round" stroke-linejoin="round"/>
<path d="M1398.95 229.547H1305.4C1299.84 229.547 1295.33 225.034 1295.33 219.468C1295.33 213.901 1299.84 209.388 1305.4 209.388H1398.95C1404.52 209.388 1409.03 213.901 1409.03 219.468C1409.03 225.034 1404.52 229.547 1398.95 229.547Z" fill="#E0E2F7"/>
<path d="M1374.55 269.211H1305.4C1299.84 269.211 1295.33 264.699 1295.33 259.132C1295.33 253.565 1299.84 249.053 1305.4 249.053H1374.55C1380.12 249.053 1384.63 253.565 1384.63 259.132C1384.63 264.699 1380.12 269.211 1374.55 269.211Z" fill="#E0E2F7"/>
<path d="M681.007 1066.26C681.007 1066.26 627.391 851.8 428.815 810.099C428.815 810.099 470.516 998.746 681.007 1066.26Z" fill="#03C7B6"/>
<path d="M475.15 851.138L681.007 1066.26" stroke="#F1F4FF" stroke-width="2.78558" stroke-miterlimit="10" stroke-linecap="round" stroke-linejoin="round"/>
<path d="M483.92 888.536L518.602 896.545L509.735 860.735" stroke="#F1F4FF" stroke-width="2.78558" stroke-miterlimit="10" stroke-linecap="round" stroke-linejoin="round"/>
<path d="M528.6 938.18L562.773 942.705L554.911 906.408" stroke="#F1F4FF" stroke-width="2.78558" stroke-miterlimit="10" stroke-linecap="round" stroke-linejoin="round"/>
<path d="M578.078 990.803L611.818 993.958L602.877 958.7" stroke="#F1F4FF" stroke-width="2.78558" stroke-miterlimit="10" stroke-linecap="round" stroke-linejoin="round"/>
<path d="M557.983 1066.26C557.983 1066.26 449.791 1066.26 409.111 1044.62C368.43 1022.98 436.808 1018.3 436.808 1018.3C436.808 1018.3 350.254 980.573 333.809 942.49C317.364 904.406 395.551 907.733 463.351 982.67C463.351 982.67 444.886 947.3 463.351 937.538C481.816 927.776 539.807 1011.73 557.983 1066.26Z" fill="#FBBC04"/>
<path d="M557.983 1066.26L379.257 952.742" stroke="#F1F4FF" stroke-width="2.78558" stroke-miterlimit="10" stroke-linecap="round" stroke-linejoin="round"/>
<path d="M1816.74 1066.26C1816.74 1066.26 1870.36 851.8 2068.93 810.099C2068.93 810.099 2027.23 998.746 1816.74 1066.26Z" fill="#03C7B6"/>
<path d="M2022.6 851.138L1816.74 1066.26" stroke="#F1F4FF" stroke-width="2.78558" stroke-miterlimit="10" stroke-linecap="round" stroke-linejoin="round"/>
<path d="M2013.83 888.536L1979.15 896.545L1988.01 860.735" stroke="#F1F4FF" stroke-width="2.78558" stroke-miterlimit="10" stroke-linecap="round" stroke-linejoin="round"/>
<path d="M1969.15 938.18L1934.97 942.705L1942.84 906.408" stroke="#F1F4FF" stroke-width="2.78558" stroke-miterlimit="10" stroke-linecap="round" stroke-linejoin="round"/>
<path d="M1919.67 990.803L1885.93 993.958L1894.87 958.7" stroke="#F1F4FF" stroke-width="2.78558" stroke-miterlimit="10" stroke-linecap="round" stroke-linejoin="round"/>
<path d="M1924.38 1066.26H2169.79C2169.79 1066.26 2165.77 1048.04 2127.08 1041.03C2127.08 1041.03 2224.35 927.457 2169.79 921.713C2115.23 915.968 2017.96 1023.88 2017.96 1023.88C2017.96 1023.88 2038.28 987.43 2007.05 985.663C1975.82 983.896 1939.93 1037.99 1924.38 1066.26Z" fill="#FBBC04"/>
<path d="M1122.89 334.414L1146.98 336.422V371.14H1122.89L1113.71 378.008L1103.67 363.668L1115.14 353.056L1122.89 334.414Z" fill="#D9E1F2"/>
<path d="M1111.6 230.961C1089.49 235.994 1081.23 256.48 1086.04 267.489C1090.84 278.498 1124.01 335.028 1124.01 335.028L1123.39 366.704C1123.39 366.704 1041.82 467.883 1018.74 564.018C995.671 660.152 1031.27 696.571 1138.76 696.571C1246.25 696.571 1302.85 662.306 1274.77 564.587C1250.32 479.487 1153.62 365.665 1153.62 365.665V338.9C1153.62 338.9 1205.24 276.819 1212.94 251.222C1220.63 225.624 1158.39 200.887 1135.19 197.874C1111.99 194.861 1111.6 230.961 1111.6 230.961Z" fill="#FBBC04"/>
<path d="M1151.2 587.083V598.907H1140.87V587.218C1133.98 586.312 1127.95 583.64 1122.79 579.199C1117.62 574.76 1114.18 569.141 1112.46 562.345L1123.6 557.859C1124.69 562.209 1126.8 565.947 1129.92 569.073C1133.05 572.199 1136.7 574.217 1140.87 575.121V542.5C1131.8 538.877 1125.37 534.867 1121.57 530.471C1117.76 526.077 1115.86 520.936 1115.86 515.044C1115.86 508.611 1118.17 503.062 1122.79 498.394C1127.41 493.728 1133.44 491.033 1140.87 490.307V478.753H1151.2V490.714C1156.81 491.621 1161.68 493.751 1165.81 497.103C1169.93 500.456 1172.72 504.397 1174.17 508.928L1163.02 513.685C1161.39 508.067 1157.45 504.489 1151.2 502.947V533.529C1160.44 537.427 1166.92 541.459 1170.63 545.626C1174.35 549.795 1176.21 554.78 1176.21 560.578C1176.21 567.737 1173.96 573.649 1169.48 578.315C1164.99 582.983 1158.9 585.904 1151.2 587.083ZM1128.36 515.044C1128.36 520.481 1132.53 525.238 1140.87 529.316V502.54C1137.06 503.174 1134.02 504.625 1131.76 506.889C1129.49 509.155 1128.36 511.874 1128.36 515.044ZM1163.7 560.85C1163.7 555.232 1159.53 550.52 1151.2 546.714V574.85C1159.53 572.947 1163.7 568.281 1163.7 560.85Z" fill="#322A56"/>
<path d="M1112.73 237.035C1112.73 237.035 1109.58 259.425 1131.7 323.275" stroke="#2E437D" stroke-width="1.9212" stroke-miterlimit="10" stroke-linecap="round" stroke-linejoin="round"/>
<path d="M1144.73 345.886C1153.59 345.886 1160.77 341.787 1160.77 336.73C1160.77 331.674 1153.59 327.575 1144.73 327.575C1135.88 327.575 1128.7 331.674 1128.7 336.73C1128.7 341.787 1135.88 345.886 1144.73 345.886Z" fill="#D9E1F2"/>
<path d="M1130.74 332.263C1133.48 329.466 1138.72 327.575 1144.73 327.575C1149.16 327.575 1153.17 328.6 1156.07 330.256" stroke="#2E437D" stroke-width="1.9212" stroke-miterlimit="10" stroke-linecap="round" stroke-linejoin="round"/>
<path d="M1144.73 358.513C1153.59 358.513 1160.77 354.414 1160.77 349.357C1160.77 344.301 1153.59 340.202 1144.73 340.202C1135.88 340.202 1128.7 344.301 1128.7 349.357C1128.7 354.414 1135.88 358.513 1144.73 358.513Z" fill="#D9E1F2"/>
<path d="M1130.74 344.891C1133.48 342.093 1138.72 340.202 1144.73 340.202C1149.16 340.202 1153.17 341.227 1156.07 342.884" stroke="#2E437D" stroke-width="1.9212" stroke-miterlimit="10" stroke-linecap="round" stroke-linejoin="round"/>
<path d="M1144.73 371.14C1153.59 371.14 1160.77 367.041 1160.77 361.985C1160.77 356.928 1153.59 352.829 1144.73 352.829C1135.88 352.829 1128.7 356.928 1128.7 361.985C1128.7 367.041 1135.88 371.14 1144.73 371.14Z" fill="#D9E1F2"/>
<path d="M1130.74 357.518C1133.48 354.72 1138.72 352.829 1144.73 352.829C1149.16 352.829 1153.17 353.854 1156.07 355.511" stroke="#2E437D" stroke-width="1.9212" stroke-miterlimit="10" stroke-linecap="round" stroke-linejoin="round"/>
<path d="M1100.51 364.815C1100.51 364.815 1099.91 330.399 1120.43 328.392C1140.95 326.384 1144.48 329.539 1143.4 334.414C1142.33 339.29 1125.18 340.724 1125.18 340.724C1125.18 340.724 1129.2 368.544 1100.51 364.815Z" fill="#D9E1F2"/>
<path d="M1143.52 332.271C1143.63 332.935 1143.57 333.654 1143.4 334.414C1142.33 339.29 1125.18 340.724 1125.18 340.724C1125.18 340.724 1126.94 352.906 1119.82 360.068" stroke="#2E437D" stroke-width="1.9212" stroke-miterlimit="10" stroke-linecap="round" stroke-linejoin="round"/>
<path d="M929.866 355.357C948.15 361.21 991.645 376.099 1015.92 384.443C1026.84 388.196 1038.81 387.122 1048.9 381.499L1100.37 352.792L1120.71 371.566C1120.71 371.566 1091.98 421.577 1046.55 432.935C1001.12 444.292 906.926 411.556 906.926 411.556L929.866 355.357Z" fill="#3D55A4"/>
<path d="M765.824 986.277L759.25 1030.57L788.107 1033.56L802.391 984.029L765.824 986.277Z" fill="#D9E1F2"/>
<path d="M911.931 997.347L912.811 1042.12L941.763 1040.27L947.617 989.053L911.931 997.347Z" fill="#D9E1F2"/>
<path d="M954.467 1006.08L902.337 1007.28C902.337 1007.28 892.969 740.089 885.946 693.395L867.771 693.114C847.074 842.555 805.92 1006.05 805.92 1006.05L754.476 997.496C754.476 997.496 769.894 903.166 775.054 838.004C780.183 772.841 786.834 639.653 795.065 594.203L873.32 592.95L954.676 585.315C985.065 754.112 954.467 1006.08 954.467 1006.08Z" fill="#6475B7"/>
<path d="M961.549 593.423L787.024 597.176L785.978 419.345C782.727 395.577 782.012 363.965 798.623 354.6C806.526 350.127 817.232 346.757 829.4 344.52C842.224 342.164 856.658 341.061 871.122 341.21C883.618 341.329 920.315 351.016 929.866 355.357C966.985 366.697 961.549 593.423 961.549 593.423Z" fill="#3D55A4"/>
<path d="M939.229 363.87C945.669 374.298 950.303 392.984 953.626 415.353" stroke="#6475B7" stroke-width="2.98228" stroke-miterlimit="10" stroke-linecap="round" stroke-linejoin="round"/>
<path d="M838.991 349.791C840.55 361.071 860.785 366.498 880.556 362.629C896.934 359.463 897.362 347.058 885.144 342.428C870.721 341.329 856.245 341.482 843.294 342.991C840.27 344.436 838.544 346.594 838.991 349.791Z" fill="#6475B7"/>
<path d="M888.692 173.867C905.963 181.079 913.459 204.899 898.693 212.281C883.927 219.664 865.442 189.714 865.442 189.714L888.692 173.867Z" fill="#322A56"/>
<path d="M879.251 311.157C879.251 311.157 876.734 329.052 884.345 346.697C884.345 346.697 896.881 355.887 875.182 358.606C853.482 361.326 843.965 350.183 845.909 345.83C851.37 333.604 843.64 306.111 844.439 306.486C845.239 306.862 879.251 311.157 879.251 311.157Z" fill="#D9E1F2"/>
<path d="M867.143 172.609C908.835 185.337 911.685 237.754 912.215 280.002C912.745 322.25 852.087 323.475 830.856 309.038C809.625 294.6 796.353 260.715 794.406 228.855C792.458 196.995 823.56 159.303 867.143 172.609Z" fill="#D9E1F2"/>
<path d="M776.367 172.838C776.367 172.838 772.008 183.147 776.619 193.663" stroke="#322A56" stroke-width="1.66053" stroke-miterlimit="10" stroke-linecap="round" stroke-linejoin="round"/>
<path d="M768.419 182.399C768.419 182.399 768.037 191.255 775.892 199.718" stroke="#322A56" stroke-width="1.66053" stroke-miterlimit="10" stroke-linecap="round" stroke-linejoin="round"/>
<path d="M894.241 174.5C894.241 174.5 904.665 177.12 909.336 186.261" stroke="#322A56" stroke-width="1.66053" stroke-miterlimit="10" stroke-linecap="round" stroke-linejoin="round"/>
<path d="M849.244 147.778C892.347 143.773 900.666 163.448 895.035 183.106C889.403 202.763 865.199 202.776 847.705 191.678C830.212 180.579 807.854 193.513 815.008 208.63C822.163 223.747 820.563 248.9 808.131 257.298C808.131 257.298 811.737 285.577 827.541 291.589C843.346 297.601 851.427 280.145 876.566 275.999C901.704 271.853 914.074 281.623 911.288 295.53C908.502 309.437 880.611 334.745 841.215 317.42C801.819 300.096 795.287 249.558 795.287 249.558C795.287 249.558 774.629 237.809 772.708 200.396C770.788 162.983 837.523 148.868 849.244 147.778Z" fill="#322A56"/>
<path d="M877.656 155.24C877.656 155.24 888.169 161.472 888.225 172.151C888.282 182.83 875.379 187.596 875.379 187.596" stroke="#D9E1F2" stroke-width="1.66053" stroke-miterlimit="10" stroke-linecap="round" stroke-linejoin="round"/>
<path d="M861.86 159.412C861.86 159.412 878.33 171.839 863.765 185.028" stroke="#D9E1F2" stroke-width="1.66053" stroke-miterlimit="10" stroke-linecap="round" stroke-linejoin="round"/>
<path d="M825.161 166.425C825.161 166.425 795.818 174.897 789.162 199.513" stroke="#D9E1F2" stroke-width="1.66053" stroke-miterlimit="10" stroke-linecap="round" stroke-linejoin="round"/>
<path d="M806.695 218.369C806.695 218.369 795.307 223.62 782.18 219.76" stroke="#D9E1F2" stroke-width="1.66053" stroke-miterlimit="10" stroke-linecap="round" stroke-linejoin="round"/>
<path d="M805.167 229.184C805.167 229.184 794.593 232.574 786.247 229.383" stroke="#D9E1F2" stroke-width="1.66053" stroke-miterlimit="10" stroke-linecap="round" stroke-linejoin="round"/>
<path d="M878.614 231.119C879.022 229.398 880.554 228.147 882.32 228.058C899.916 227.166 910.026 233.783 906.074 234.915C901.952 236.096 879.874 238.985 878.721 234.994C878.292 233.508 878.36 232.189 878.614 231.119Z" fill="#322A56"/>
<path d="M853.839 233.119C853.16 231.486 851.448 230.497 849.69 230.692C832.178 232.634 823.261 240.787 827.343 241.27C831.602 241.775 853.857 241.085 854.355 236.961C854.54 235.426 854.262 234.135 853.839 233.119Z" fill="#322A56"/>
<path d="M882.613 256.808C882.613 256.808 881.506 248.773 889.238 247.428C896.969 246.084 898.788 254.413 898.788 254.413C898.788 254.413 898.596 261.32 892.084 262.102C885.572 262.885 882.613 256.808 882.613 256.808Z" fill="white"/>
<path d="M896.281 258.888C898.152 258.49 899.213 256.028 898.651 253.391C898.089 250.753 896.116 248.938 894.245 249.337C892.374 249.736 891.313 252.197 891.875 254.835C892.437 257.472 894.409 259.287 896.281 258.888Z" fill="#322A56"/>
<path d="M898.651 253.391C898.651 253.391 896.931 246.142 889.238 247.428C881.544 248.715 882.561 255.668 882.561 255.668" stroke="#322A56" stroke-width="1.66053" stroke-miterlimit="10" stroke-linecap="round" stroke-linejoin="round"/>
<path d="M840.164 263.496C840.164 263.496 839.057 255.461 846.789 254.116C854.521 252.772 856.339 261.101 856.339 261.101C856.339 261.101 856.147 268.008 849.635 268.79C843.123 269.573 840.164 263.496 840.164 263.496Z" fill="white"/>
<path d="M853.832 265.577C855.703 265.178 856.764 262.717 856.202 260.079C855.64 257.441 853.668 255.626 851.796 256.025C849.925 256.424 848.864 258.885 849.426 261.523C849.988 264.16 851.96 265.975 853.832 265.577Z" fill="#322A56"/>
<path d="M856.202 260.079C856.202 260.079 854.483 252.83 846.789 254.116C839.095 255.403 840.112 262.356 840.112 262.356" stroke="#322A56" stroke-width="1.66053" stroke-miterlimit="10" stroke-linecap="round" stroke-linejoin="round"/>
<path d="M871.002 251.306C874.608 251.306 875.089 266.228 876.574 268.937C878.059 271.647 885.595 272.461 884.314 278.282C883.033 284.102 868.205 285.043 866.353 271.619C864.502 258.196 866.463 251.307 871.002 251.306Z" fill="#EF5158"/>
<path d="M879.774 298.614C879.774 298.614 867.989 306.213 862.097 294.716" stroke="#D9E1F2" stroke-width="1.66053" stroke-miterlimit="10" stroke-linecap="round" stroke-linejoin="round"/>
<path d="M798.261 254.459C794.453 244.123 780.324 227.142 769.775 240.118C759.227 253.094 776.257 284.303 807.984 281.001C807.984 281.001 802.119 264.933 798.261 254.459Z" fill="#D9E1F2"/>
<path d="M777.75 249.146C777.75 249.146 789.054 251.072 793.413 267.745C793.413 267.745 787.634 260.501 780.109 260.215" stroke="#2E437D" stroke-width="1.66053" stroke-miterlimit="10" stroke-linecap="round" stroke-linejoin="round"/>
<path d="M934.419 1012.94C946.389 1011.85 954.006 1028.72 954.006 1028.72C954.006 1028.72 967.607 1041.78 987.194 1048.31C1006.78 1054.84 1004.6 1063 1001.88 1066.26H908.848C908.848 1066.26 907.58 1027.09 909.213 1022.19C910.845 1017.3 917.278 1024.17 917.278 1024.17C917.278 1024.17 928.974 1013.44 934.419 1012.94Z" fill="#302356"/>
<path d="M773.386 1014.21C765.405 1014.21 759.828 1025.43 759.828 1025.43C759.828 1025.43 755.455 1027.67 754.58 1029.47C753.705 1031.26 748.672 1040.82 742.112 1048.9C735.552 1056.98 737.523 1066.26 737.523 1066.26H802.266C802.266 1066.26 802.84 1055.83 801.528 1052.69C800.216 1049.55 798.752 1037.54 797.003 1031.71C795.254 1025.88 789.397 1025.97 789.397 1025.97C789.397 1025.97 786.944 1014.21 773.386 1014.21Z" fill="#302356"/>
<path d="M846.919 692.53C846.919 692.53 896.164 695.647 922.345 692.53" stroke="#7F92CC" stroke-width="2.98228" stroke-miterlimit="10" stroke-linecap="round" stroke-linejoin="round"/>
<path d="M895.541 597.176C895.541 597.176 894.294 654.505 891.801 660.115C889.308 665.725 879.334 665.102 879.334 665.102" stroke="#7F92CC" stroke-width="2.98228" stroke-miterlimit="10" stroke-linecap="round" stroke-linejoin="round"/>
<path d="M802.391 638.298C802.391 638.298 832.582 635.181 832.582 604.637" stroke="#7F92CC" stroke-width="2.98228" stroke-miterlimit="10" stroke-linecap="round" stroke-linejoin="round"/>
<path d="M953.622 635.886C944.732 632.394 932.521 624.062 932.521 604.637" stroke="#7F92CC" stroke-width="2.98228" stroke-miterlimit="10" stroke-linecap="round" stroke-linejoin="round"/>
<path d="M891.682 521.919C891.682 521.919 909.828 517.786 920.293 518.737C930.758 519.688 945.346 526.982 945.346 526.982C945.346 526.982 957.08 523.209 967.545 518.595C978.01 513.98 974.714 538.102 957.969 545.386C941.223 552.669 916.92 556.158 903.067 542.838C889.215 529.519 891.682 521.919 891.682 521.919Z" fill="#D9E1F2"/>
<path d="M960.621 541.898C960.621 541.898 967.987 532.924 970.09 525.927C972.193 518.93 964.842 517.848 960.051 524.854" stroke="#2E437D" stroke-width="1.9212" stroke-miterlimit="10" stroke-linecap="round" stroke-linejoin="round"/>
<path d="M946.849 546.867C946.849 546.867 959.031 538.633 962.611 531.114C966.191 523.596 957.778 522.522 950.438 529.682C943.099 536.843 939.877 535.86 939.877 535.86" stroke="#2E437D" stroke-width="1.9212" stroke-miterlimit="10" stroke-linecap="round" stroke-linejoin="round"/>
<path d="M897.221 524.762C897.221 524.762 914.08 542.204 921.691 543.79C929.302 545.375 943.991 540.936 946.636 536.179C949.281 531.422 926.448 531.105 926.448 531.105C926.448 531.105 921.691 523.811 917.252 521.274C912.812 518.737 897.221 524.762 897.221 524.762Z" fill="#D9E1F2"/>
<path d="M909.953 536.542C914.236 540.064 918.685 543.164 921.691 543.79C929.302 545.375 943.991 540.936 946.636 536.179C949.281 531.422 926.448 531.105 926.448 531.105C926.448 531.105 921.691 523.811 917.252 521.274" stroke="#2E437D" stroke-width="1.9212" stroke-miterlimit="10" stroke-linecap="round" stroke-linejoin="round"/>
<path d="M796.11 353.432C752.847 363 737.619 456.544 736.861 500.61C736.102 544.676 766.171 558.145 830.365 552.967C894.56 547.789 904.328 544.575 904.328 544.575L906.926 518.329L793.918 502.314C793.918 502.314 813.071 404.12 813.116 386.968C813.161 369.816 816.105 349.01 796.11 353.432Z" fill="#3D55A4"/>
<path d="M812.476 553.94C818.114 553.802 824.076 553.474 830.365 552.967C894.56 547.789 904.328 544.575 904.328 544.575L906.926 518.329L793.918 502.314C793.918 502.314 813.071 404.12 813.116 386.968C813.136 379.611 813.688 371.581 812.735 365.158" stroke="#6475B7" stroke-width="2.98228" stroke-miterlimit="10" stroke-linecap="round" stroke-linejoin="round"/>
<path d="M775.369 514.263C775.369 514.263 779.756 506.42 793.918 502.313" stroke="#6475B7" stroke-width="2.98228" stroke-miterlimit="10" stroke-linecap="round" stroke-linejoin="round"/>
<path d="M1367.72 1064.91H1132.8C1125.63 1064.91 1119.82 1059.1 1119.82 1051.93V1027.22C1119.82 1020.05 1125.63 1014.24 1132.8 1014.24H1367.72C1374.89 1014.24 1380.7 1020.05 1380.7 1027.22V1051.93C1380.7 1059.1 1374.89 1064.91 1367.72 1064.91Z" fill="#E0E2F7"/>
<path d="M1149.47 1021.57V1057.59" stroke="#6475B7" stroke-width="2.98228" stroke-miterlimit="10" stroke-linecap="round" stroke-linejoin="round"/>
<path d="M1183.07 1021.57V1057.59" stroke="#6475B7" stroke-width="2.98228" stroke-miterlimit="10" stroke-linecap="round" stroke-linejoin="round"/>
<path d="M1216.66 1021.57V1057.59" stroke="#6475B7" stroke-width="2.98228" stroke-miterlimit="10" stroke-linecap="round" stroke-linejoin="round"/>
<path d="M1250.26 1021.57V1057.59" stroke="#6475B7" stroke-width="2.98228" stroke-miterlimit="10" stroke-linecap="round" stroke-linejoin="round"/>
<path d="M1283.85 1021.57V1057.59" stroke="#6475B7" stroke-width="2.98228" stroke-miterlimit="10" stroke-linecap="round" stroke-linejoin="round"/>
<path d="M1317.45 1021.57V1057.59" stroke="#6475B7" stroke-width="2.98228" stroke-miterlimit="10" stroke-linecap="round" stroke-linejoin="round"/>
<path d="M1351.04 1021.57V1057.59" stroke="#6475B7" stroke-width="2.98228" stroke-miterlimit="10" stroke-linecap="round" stroke-linejoin="round"/>
<path d="M1367.72 963.867H1132.8C1125.63 963.867 1119.82 958.056 1119.82 950.886V926.174C1119.82 919.004 1125.63 913.192 1132.8 913.192H1367.72C1374.89 913.192 1380.7 919.004 1380.7 926.174V950.886C1380.7 958.056 1374.89 963.867 1367.72 963.867Z" fill="#E0E2F7"/>
<path d="M1149.47 920.521V956.539" stroke="#6475B7" stroke-width="2.98228" stroke-miterlimit="10" stroke-linecap="round" stroke-linejoin="round"/>
<path d="M1183.07 920.521V956.539" stroke="#6475B7" stroke-width="2.98228" stroke-miterlimit="10" stroke-linecap="round" stroke-linejoin="round"/>
<path d="M1216.66 920.521V956.539" stroke="#6475B7" stroke-width="2.98228" stroke-miterlimit="10" stroke-linecap="round" stroke-linejoin="round"/>
<path d="M1250.26 920.521V956.539" stroke="#6475B7" stroke-width="2.98228" stroke-miterlimit="10" stroke-linecap="round" stroke-linejoin="round"/>
<path d="M1283.85 920.521V956.539" stroke="#6475B7" stroke-width="2.98228" stroke-miterlimit="10" stroke-linecap="round" stroke-linejoin="round"/>
<path d="M1317.45 920.521V956.539" stroke="#6475B7" stroke-width="2.98228" stroke-miterlimit="10" stroke-linecap="round" stroke-linejoin="round"/>
<path d="M1351.04 920.521V956.539" stroke="#6475B7" stroke-width="2.98228" stroke-miterlimit="10" stroke-linecap="round" stroke-linejoin="round"/>
<path d="M1378.14 1014.39H1143.22C1136.05 1014.39 1130.24 1008.58 1130.24 1001.41V976.697C1130.24 969.528 1136.05 963.716 1143.22 963.716H1378.14C1385.31 963.716 1391.12 969.528 1391.12 976.697V1001.41C1391.12 1008.58 1385.31 1014.39 1378.14 1014.39Z" fill="#E0E2F7"/>
<path d="M1159.89 971.044V1007.06" stroke="#6475B7" stroke-width="2.98228" stroke-miterlimit="10" stroke-linecap="round" stroke-linejoin="round"/>
<path d="M1193.49 971.044V1007.06" stroke="#6475B7" stroke-width="2.98228" stroke-miterlimit="10" stroke-linecap="round" stroke-linejoin="round"/>
<path d="M1227.08 971.044V1007.06" stroke="#6475B7" stroke-width="2.98228" stroke-miterlimit="10" stroke-linecap="round" stroke-linejoin="round"/>
<path d="M1260.68 971.044V1007.06" stroke="#6475B7" stroke-width="2.98228" stroke-miterlimit="10" stroke-linecap="round" stroke-linejoin="round"/>
<path d="M1294.28 971.044V1007.06" stroke="#6475B7" stroke-width="2.98228" stroke-miterlimit="10" stroke-linecap="round" stroke-linejoin="round"/>
<path d="M1327.87 971.044V1007.06" stroke="#6475B7" stroke-width="2.98228" stroke-miterlimit="10" stroke-linecap="round" stroke-linejoin="round"/>
<path d="M1361.47 971.044V1007.06" stroke="#6475B7" stroke-width="2.98228" stroke-miterlimit="10" stroke-linecap="round" stroke-linejoin="round"/>
<path d="M1378.14 913.192H1143.22C1136.05 913.192 1130.24 907.38 1130.24 900.211V875.498C1130.24 868.329 1136.05 862.517 1143.22 862.517H1378.14C1385.31 862.517 1391.12 868.329 1391.12 875.498V900.211C1391.12 907.38 1385.31 913.192 1378.14 913.192Z" fill="#E0E2F7"/>
<path d="M1159.89 869.845V905.864" stroke="#6475B7" stroke-width="2.98228" stroke-miterlimit="10" stroke-linecap="round" stroke-linejoin="round"/>
<path d="M1193.49 869.845V905.864" stroke="#6475B7" stroke-width="2.98228" stroke-miterlimit="10" stroke-linecap="round" stroke-linejoin="round"/>
<path d="M1227.08 869.845V905.864" stroke="#6475B7" stroke-width="2.98228" stroke-miterlimit="10" stroke-linecap="round" stroke-linejoin="round"/>
<path d="M1260.68 869.845V905.864" stroke="#6475B7" stroke-width="2.98228" stroke-miterlimit="10" stroke-linecap="round" stroke-linejoin="round"/>
<path d="M1294.28 869.845V905.864" stroke="#6475B7" stroke-width="2.98228" stroke-miterlimit="10" stroke-linecap="round" stroke-linejoin="round"/>
<path d="M1327.87 869.845V905.864" stroke="#6475B7" stroke-width="2.98228" stroke-miterlimit="10" stroke-linecap="round" stroke-linejoin="round"/>
<path d="M1361.47 869.845V905.864" stroke="#6475B7" stroke-width="2.98228" stroke-miterlimit="10" stroke-linecap="round" stroke-linejoin="round"/>
<path d="M1155.22 913.192H1361.47" stroke="#6475B7" stroke-width="2.98228" stroke-miterlimit="10" stroke-linecap="round" stroke-linejoin="round"/>
<path d="M1149.47 963.867H1361.47" stroke="#6475B7" stroke-width="2.98228" stroke-miterlimit="10" stroke-linecap="round" stroke-linejoin="round"/>
<path d="M1149.47 1012.89H1364.15" stroke="#6475B7" stroke-width="2.98228" stroke-miterlimit="10" stroke-linecap="round" stroke-linejoin="round"/>
<path d="M1395.23 1066.07C1460.23 1066.07 1512.93 1013.37 1512.93 948.368C1512.93 883.365 1460.23 830.669 1395.23 830.669C1330.23 830.669 1277.53 883.365 1277.53 948.368C1277.53 1013.37 1330.23 1066.07 1395.23 1066.07Z" fill="#6475B7"/>
<path d="M1418.7 1066.07C1483.71 1066.07 1536.4 1013.37 1536.4 948.368C1536.4 883.365 1483.71 830.669 1418.7 830.669C1353.7 830.669 1301 883.365 1301 948.368C1301 1013.37 1353.7 1066.07 1418.7 1066.07Z" fill="#E0E2F7"/>
<path d="M1418.7 1035.46C1466.8 1035.46 1505.79 996.467 1505.79 948.368C1505.79 900.269 1466.8 861.277 1418.7 861.277C1370.6 861.277 1331.61 900.269 1331.61 948.368C1331.61 996.467 1370.6 1035.46 1418.7 1035.46Z" stroke="#6475B7" stroke-width="2.98228" stroke-miterlimit="10" stroke-linecap="round" stroke-linejoin="round"/>
<path d="M1434.68 990.036L1437.3 1000.34L1428.3 1002.63L1425.71 992.443C1419.51 993.178 1413.67 992.185 1408.18 989.459C1402.7 986.734 1398.45 982.602 1395.45 977.061L1404.17 970.683C1406.08 974.231 1408.74 977.022 1412.16 979.055C1415.57 981.086 1419.2 982.036 1423.03 981.9L1415.8 953.473C1407.11 952.323 1400.61 950.255 1396.32 947.267C1392.03 944.28 1389.23 940.221 1387.93 935.086C1386.5 929.48 1387.29 924.134 1390.28 919.041C1393.27 913.951 1397.93 910.268 1404.24 907.988L1401.68 897.92L1410.68 895.632L1413.33 906.055C1418.43 905.601 1423.15 906.379 1427.48 908.386C1431.82 910.395 1435.12 913.213 1437.39 916.839L1428.73 923.453C1426.06 918.919 1421.84 916.674 1416.04 916.716L1422.82 943.367C1431.74 944.715 1438.28 946.796 1442.44 949.602C1446.6 952.413 1449.32 956.345 1450.61 961.397C1452.19 967.637 1451.55 973.286 1448.67 978.346C1445.8 983.407 1441.13 987.303 1434.68 990.036ZM1398.82 932.316C1400.03 937.055 1404.71 940.277 1412.88 941.982L1406.95 918.648C1403.78 920.045 1401.45 921.982 1399.98 924.457C1398.51 926.935 1398.12 929.553 1398.82 932.316ZM1439.77 964.404C1438.53 959.51 1433.85 956.326 1425.74 954.855L1431.97 979.375C1438.82 975.87 1441.42 970.88 1439.77 964.404Z" fill="#322A56"/>
<path d="M129.153 1066.26H2403.1" stroke="#E0E2F7" stroke-width="7.79276" stroke-miterlimit="10"/>
</g>
<defs>
<linearGradient id="paint0_linear_2800_382" x1="1259" y1="-21.3125" x2="1259" y2="1206.31" gradientUnits="userSpaceOnUse">
<stop stop-color="#BFC4EE"/>
<stop offset="1" stop-color="#BFC4EE" stop-opacity="0"/>
</linearGradient>
<clipPath id="clip0_2800_382">
<rect width="2518" height="1185" fill="white"/>
</clipPath>
</defs>
</svg>
